<svg xmlns="http://www.w3.org/2000/svg" xmlns:xlink="http://www.w3.org/1999/xlink" width="1366" zoomAndPan="magnify" viewBox="0 0 1024.5 576" height="768" preserveAspectRatio="xMidYMid meet" version="1.0"><defs><clipPath id="c3385f05c4"><path d="M 892 405 L 961 405 L 961 484 L 892 484 Z M 892 405 " clip-rule="nonzero"/></clipPath><clipPath id="38473cd41c"><path d="M 961.558594 401.878906 L 972.945312 474.492188 L 895.886719 486.574219 L 884.5 413.960938 Z M 961.558594 401.878906 " clip-rule="nonzero"/></clipPath><clipPath id="319def1a51"><path d="M 961.558594 401.878906 L 972.945312 474.492188 L 895.886719 486.574219 L 884.5 413.960938 Z M 961.558594 401.878906 " clip-rule="nonzero"/></clipPath><clipPath id="85863d2cff"><path d="M 0 444.273438 L 102.75 444.273438 L 102.75 575.859375 L 0 575.859375 Z M 0 444.273438 " clip-rule="nonzero"/></clipPath><clipPath id="18748ba153"><path d="M 884.242188 0.140625 L 1024 0.140625 L 1024 185.832031 L 884.242188 185.832031 Z M 884.242188 0.140625 " clip-rule="nonzero"/></clipPath><clipPath id="460a75be8d"><path d="M 874.390625 454.632812 L 1024 454.632812 L 1024 575.859375 L 874.390625 575.859375 Z M 874.390625 454.632812 " clip-rule="nonzero"/></clipPath><clipPath id="5ce8b68bb1"><path d="M 268.195312 59 L 341.695312 59 L 341.695312 132 L 268.195312 132 Z M 268.195312 59 " clip-rule="nonzero"/></clipPath><clipPath id="c89ad3c724"><path d="M 721.773438 57.742188 L 823.773438 57.742188 L 823.773438 141.742188 L 721.773438 141.742188 Z M 721.773438 57.742188 " clip-rule="nonzero"/></clipPath><clipPath id="e58bebb984"><path d="M 160 378 L 229 378 L 229 438 L 160 438 Z M 160 378 " clip-rule="nonzero"/></clipPath><clipPath id="06c2ca1fe2"><path d="M 206.347656 446.820312 L 155.4375 387.722656 L 190.667969 357.375 L 241.578125 416.46875 Z M 206.347656 446.820312 " clip-rule="nonzero"/></clipPath><clipPath id="e9cb556630"><path d="M 206.347656 446.820312 L 155.4375 387.722656 L 190.667969 357.375 L 241.578125 416.46875 Z M 206.347656 446.820312 " clip-rule="nonzero"/></clipPath><clipPath id="e90e5b3b15"><path d="M 159 377 L 230 377 L 230 438 L 159 438 Z M 159 377 " clip-rule="nonzero"/></clipPath><clipPath id="0c5fd8fab1"><path d="M 206.347656 446.820312 L 155.4375 387.722656 L 190.667969 357.375 L 241.578125 416.46875 Z M 206.347656 446.820312 " clip-rule="nonzero"/></clipPath><clipPath id="ebda0cb3cb"><path d="M 206.347656 446.820312 L 155.4375 387.722656 L 190.667969 357.375 L 241.578125 416.46875 Z M 206.347656 446.820312 " clip-rule="nonzero"/></clipPath></defs><g clip-path="url(#c3385f05c4)"><g clip-path="url(#38473cd41c)"><g clip-path="url(#319def1a51)"><path fill="#6e732c" d="M 916.003906 482.984375 C 922.296875 481.605469 925.433594 476.25 926.5 470.109375 C 927.539062 464.222656 928.242188 459.277344 932.835938 455.027344 C 936.605469 451.539062 941.371094 449.425781 945.640625 446.722656 C 951.988281 442.703125 957.851562 437.128906 959.945312 429.480469 C 963.722656 415.675781 952.742188 403.519531 939.160156 405.515625 C 931.910156 406.589844 925.785156 411.40625 921.40625 417.234375 C 918.265625 421.417969 915.949219 425.296875 910.984375 427.359375 C 907.460938 428.824219 903.585938 429.5625 900.394531 431.769531 C 893.921875 436.25 892.542969 446.605469 892.34375 454.136719 C 892.128906 462.613281 896.832031 468.90625 901.582031 475.285156 C 901.585938 475.304688 901.585938 475.304688 901.585938 475.304688 C 904.378906 480.789062 909.960938 484.304688 916.003906 482.984375 Z M 916.003906 482.984375 " fill-opacity="1" fill-rule="nonzero"/></g></g></g><g clip-path="url(#85863d2cff)"><path fill="#6e732c" d="M 5.59375 444.289062 C 3.71875 444.28125 1.847656 444.445312 0 444.765625 L 0 580.761719 L 102.75 580.761719 C 101.203125 580.210938 99.667969 579.625 98.179688 578.933594 C 94.476562 577.21875 90.960938 574.765625 88.882812 571.246094 C 87.375 568.691406 86.707031 565.703125 86.53125 562.738281 C 86.351562 559.773438 86.640625 556.800781 86.929688 553.84375 C 87.214844 550.886719 87.5 547.914062 87.308594 544.945312 C 87.117188 541.980469 86.425781 539 84.894531 536.457031 C 83.1875 533.625 80.507812 531.472656 77.570312 529.964844 C 74.632812 528.453125 71.429688 527.542969 68.214844 526.777344 C 65.003906 526.011719 61.753906 525.378906 58.601562 524.386719 C 55.453125 523.394531 52.378906 522.011719 49.832031 519.910156 C 46.96875 517.546875 44.875 514.34375 43.496094 510.894531 C 42.125 507.445312 41.441406 503.753906 41.113281 500.054688 C 40.449219 492.660156 41.15625 485.164062 40.113281 477.8125 C 39.027344 470.144531 35.976562 462.703125 31.019531 456.757812 C 26.058594 450.8125 19.15625 446.425781 11.574219 444.894531 C 9.605469 444.496094 7.601562 444.296875 5.59375 444.289062 Z M 5.59375 444.289062 " fill-opacity="1" fill-rule="nonzero"/></g><g clip-path="url(#18748ba153)"><path fill="#6e732c" d="M 1016.859375 185.808594 C 1019.414062 185.820312 1021.972656 185.59375 1024.492188 185.160156 L 1024.492188 -0.15625 L 884.242188 -0.15625 C 886.355469 0.59375 888.449219 1.394531 890.484375 2.335938 C 895.539062 4.671875 900.335938 8.015625 903.167969 12.808594 C 905.230469 16.292969 906.140625 20.363281 906.382812 24.40625 C 906.625 28.445312 906.230469 32.496094 905.835938 36.527344 C 905.445312 40.554688 905.058594 44.609375 905.320312 48.648438 C 905.582031 52.6875 906.523438 56.753906 908.617188 60.21875 C 910.945312 64.074219 914.601562 67.007812 918.609375 69.066406 C 922.621094 71.121094 926.996094 72.363281 931.378906 73.40625 C 935.765625 74.449219 940.203125 75.308594 944.5 76.664062 C 948.800781 78.019531 952.996094 79.898438 956.476562 82.765625 C 960.378906 85.984375 963.242188 90.351562 965.121094 95.050781 C 966.996094 99.75 967.925781 104.78125 968.375 109.820312 C 969.28125 119.898438 968.316406 130.109375 969.738281 140.128906 C 971.222656 150.578125 975.386719 160.71875 982.15625 168.820312 C 988.921875 176.921875 998.34375 182.898438 1008.695312 184.984375 C 1011.382812 185.527344 1014.117188 185.796875 1016.859375 185.808594 Z M 1016.859375 185.808594 " fill-opacity="1" fill-rule="nonzero"/></g><g clip-path="url(#460a75be8d)"><path fill="#6e732c" d="M 874.410156 569.515625 C 874.402344 571.730469 874.597656 573.949219 874.972656 576.132812 L 1034.882812 576.132812 L 1034.882812 454.628906 C 1034.234375 456.460938 1033.546875 458.273438 1032.734375 460.039062 C 1030.714844 464.417969 1027.832031 468.570312 1023.695312 471.027344 C 1020.6875 472.8125 1017.175781 473.601562 1013.6875 473.8125 C 1010.199219 474.019531 1006.707031 473.679688 1003.230469 473.339844 C 999.75 473 996.253906 472.664062 992.769531 472.890625 C 989.28125 473.117188 985.777344 473.933594 982.785156 475.746094 C 979.457031 477.765625 976.925781 480.929688 975.152344 484.40625 C 973.375 487.878906 972.304688 491.667969 971.402344 495.46875 C 970.503906 499.265625 969.761719 503.109375 968.59375 506.835938 C 967.425781 510.558594 965.804688 514.195312 963.328125 517.207031 C 960.550781 520.589844 956.78125 523.070312 952.726562 524.695312 C 948.671875 526.320312 944.332031 527.125 939.984375 527.515625 C 931.285156 528.300781 922.472656 527.464844 913.828125 528.695312 C 904.8125 529.984375 896.0625 533.589844 889.074219 539.453125 C 882.082031 545.316406 876.925781 553.476562 875.125 562.445312 C 874.65625 564.773438 874.421875 567.144531 874.410156 569.515625 Z M 874.410156 569.515625 " fill-opacity="1" fill-rule="nonzero"/></g><g clip-path="url(#5ce8b68bb1)"><path fill="#6e732c" d="M 268.625 78.40625 C 269.011719 84.835938 273.816406 88.765625 279.71875 90.769531 C 285.375 92.710938 290.148438 94.167969 293.636719 99.363281 C 296.5 103.628906 297.847656 108.664062 299.859375 113.300781 C 302.847656 120.195312 307.445312 126.851562 314.679688 130.105469 C 327.730469 135.976562 341.441406 127.011719 341.570312 113.285156 C 341.636719 105.957031 337.824219 99.15625 332.746094 93.929688 C 329.097656 90.175781 325.625 87.289062 324.355469 82.0625 C 323.457031 78.355469 323.328125 74.410156 321.640625 70.917969 C 318.214844 63.828125 308.199219 60.863281 300.789062 59.5 C 292.449219 57.976562 285.503906 61.648438 278.464844 65.351562 C 278.449219 65.351562 278.449219 65.351562 278.449219 65.351562 C 272.597656 67.261719 268.257812 72.230469 268.625 78.40625 Z M 268.625 78.40625 " fill-opacity="1" fill-rule="nonzero"/></g><g clip-path="url(#c89ad3c724)"><path fill="#6e732c" d="M 816.519531 139.089844 C 815.667969 139.296875 814.960938 139.722656 814.332031 140.3125 C 814.011719 140.621094 813.625 140.90625 813.222656 141.109375 C 812.351562 141.535156 811.421875 141.742188 810.449219 141.535156 C 809.035156 141.230469 807.617188 140.925781 806.261719 140.414062 C 805.675781 140.191406 805.046875 140.027344 804.441406 139.867188 C 803.550781 139.601562 802.742188 139.171875 801.996094 138.644531 C 801.0625 137.992188 800.132812 137.339844 799.203125 136.726562 C 798.351562 136.175781 797.441406 135.667969 796.574219 135.136719 C 796.308594 134.976562 796.046875 134.769531 795.785156 134.609375 C 794.511719 133.792969 793.234375 132.957031 791.941406 132.164062 C 791.191406 131.695312 790.382812 131.308594 789.613281 130.878906 C 789.210938 130.65625 788.847656 130.390625 788.441406 130.164062 C 787.914062 129.859375 787.410156 129.554688 786.882812 129.269531 C 785.40625 128.496094 783.929688 127.742188 782.453125 127.007812 C 781.929688 126.742188 781.363281 126.519531 780.796875 126.335938 C 779.785156 126.007812 778.792969 125.640625 777.761719 125.398438 C 777.214844 125.273438 776.6875 125.03125 776.144531 124.867188 C 775.636719 124.703125 775.132812 124.621094 774.605469 124.542969 C 773.332031 124.359375 772.078125 124.359375 770.800781 124.398438 C 770.195312 124.417969 769.609375 124.480469 769.023438 124.5625 C 768.152344 124.683594 767.28125 124.804688 766.394531 124.804688 C 765.605469 124.828125 764.855469 124.96875 764.085938 125.132812 C 763.054688 125.355469 762.023438 125.601562 761.011719 125.886719 C 758.808594 126.519531 756.621094 127.191406 754.519531 128.105469 C 754.398438 128.167969 754.257812 128.230469 754.132812 128.269531 C 752.597656 128.800781 751.160156 129.554688 749.703125 130.289062 C 748.226562 131.042969 746.710938 131.695312 745.132812 132.203125 C 744.261719 132.488281 743.414062 132.816406 742.5625 133.179688 C 742.019531 133.425781 741.429688 133.589844 740.863281 133.753906 C 740.199219 133.957031 739.488281 134.097656 738.820312 134.300781 C 738.074219 134.527344 737.34375 134.464844 736.65625 134.160156 C 736.113281 133.914062 735.546875 133.710938 734.957031 133.570312 C 734.714844 133.507812 734.511719 133.363281 734.332031 133.179688 C 734.191406 133.019531 734.070312 132.855469 733.90625 132.710938 C 733.664062 132.53125 733.625 132.242188 733.503906 132 C 733.378906 131.734375 733.257812 131.488281 733.300781 131.203125 C 733.320312 130.917969 733.257812 130.632812 733.179688 130.371094 C 732.734375 128.859375 732.550781 127.3125 732.492188 125.742188 C 732.492188 125.539062 732.492188 125.316406 732.429688 125.113281 C 732.148438 124.132812 732.246094 123.136719 732.371094 122.15625 C 732.46875 121.339844 732.589844 120.546875 732.835938 119.753906 C 732.875 119.609375 732.914062 119.46875 732.914062 119.34375 C 732.9375 118.632812 733.15625 117.9375 733.378906 117.265625 C 733.542969 116.714844 733.722656 116.1875 733.824219 115.636719 C 734.046875 114.515625 734.535156 113.476562 734.835938 112.394531 C 734.878906 112.253906 734.980469 112.128906 734.980469 112.007812 C 735.058594 111.335938 735.324219 110.703125 735.546875 110.074219 C 735.789062 109.378906 736.050781 108.667969 736.332031 107.992188 C 736.554688 107.484375 736.679688 106.914062 737.023438 106.445312 C 737.101562 106.097656 737.246094 105.773438 737.324219 105.425781 C 737.488281 104.835938 737.832031 104.347656 738.011719 103.753906 C 738.074219 103.550781 738.214844 103.386719 738.335938 103.203125 C 738.597656 102.816406 738.78125 102.390625 738.882812 101.941406 C 739.042969 101.289062 739.226562 100.636719 739.386719 99.984375 C 739.507812 99.476562 739.652344 98.964844 739.710938 98.4375 C 739.773438 97.945312 739.894531 97.457031 739.996094 96.96875 C 740.117188 96.460938 740.296875 95.949219 740.257812 95.398438 C 740.257812 95.257812 740.320312 95.136719 740.359375 94.992188 C 740.378906 94.890625 740.441406 94.789062 740.421875 94.6875 C 740.320312 94.117188 740.421875 93.546875 740.359375 92.996094 C 740.296875 92.425781 740.136719 91.875 740.015625 91.324219 C 739.996094 91.261719 739.996094 91.179688 739.953125 91.121094 C 739.46875 90.203125 739.328125 89.164062 738.964844 88.207031 C 738.640625 87.328125 738.253906 86.515625 737.6875 85.761719 C 737.285156 85.210938 736.777344 84.78125 736.152344 84.496094 C 735.667969 84.273438 735.199219 84.027344 734.757812 83.742188 C 734.453125 83.558594 734.148438 83.375 733.804688 83.273438 C 732.753906 82.90625 731.804688 82.378906 730.871094 81.808594 C 730.546875 81.605469 730.203125 81.398438 729.820312 81.296875 C 729.394531 81.195312 729.03125 80.972656 728.726562 80.6875 C 728.324219 80.277344 727.839844 79.992188 727.371094 79.667969 C 726.320312 78.953125 725.269531 78.222656 724.21875 77.507812 C 723.730469 77.179688 723.367188 76.773438 723.164062 76.203125 C 723.085938 75.980469 722.984375 75.734375 722.839844 75.53125 C 722.578125 75.101562 722.355469 74.675781 722.398438 74.144531 C 722.398438 74.042969 722.375 73.921875 722.335938 73.839844 C 722.074219 73.25 722.09375 72.597656 721.890625 71.984375 C 721.808594 71.71875 721.832031 71.433594 721.953125 71.148438 C 722.011719 70.988281 722.09375 70.804688 722.074219 70.640625 C 722.03125 70.335938 722.132812 70.089844 722.195312 69.804688 C 722.316406 69.355469 722.417969 68.929688 722.4375 68.460938 C 722.476562 67.480469 722.761719 66.542969 723.328125 65.769531 C 723.894531 64.976562 724.21875 64.078125 724.5625 63.179688 C 724.582031 62.632812 724.925781 62.265625 725.308594 61.957031 C 725.59375 61.734375 725.816406 61.46875 725.957031 61.144531 C 725.996094 61.042969 726.058594 60.960938 726.140625 60.878906 C 726.484375 60.574219 726.828125 60.265625 727.171875 59.980469 C 727.3125 59.878906 727.472656 59.796875 727.636719 59.71875 C 727.898438 59.617188 728.160156 59.492188 728.425781 59.433594 C 729.253906 59.207031 730.003906 58.839844 730.792969 58.496094 C 731.015625 58.394531 731.238281 58.289062 731.4375 58.148438 C 731.804688 57.902344 732.207031 57.78125 732.632812 57.761719 C 733.238281 57.742188 733.824219 57.742188 734.433594 57.761719 C 734.632812 57.761719 734.835938 57.84375 735.058594 57.882812 C 736.171875 58.167969 737.164062 58.679688 738.09375 59.328125 C 738.699219 59.757812 739.347656 60.125 739.976562 60.511719 C 740.519531 60.839844 741.027344 61.226562 741.472656 61.695312 C 741.796875 62.019531 742.140625 62.324219 742.484375 62.632812 C 743.332031 63.386719 744.101562 64.199219 744.851562 65.078125 C 745.515625 65.851562 746.226562 66.605469 746.933594 67.339844 C 747.378906 67.808594 747.722656 68.335938 748.027344 68.90625 C 748.59375 70.007812 749.097656 71.128906 749.503906 72.3125 C 749.703125 72.921875 749.988281 73.492188 750.25 74.0625 C 750.351562 74.289062 750.515625 74.492188 750.65625 74.695312 C 751.019531 75.183594 751.363281 75.671875 751.746094 76.140625 C 752.253906 76.792969 752.636719 77.507812 753.042969 78.222656 C 753.769531 79.464844 754.742188 80.484375 755.875 81.339844 C 755.996094 81.421875 756.097656 81.5 756.21875 81.5625 C 757.027344 81.96875 757.855469 82.398438 758.6875 82.785156 C 759.71875 83.253906 760.769531 83.640625 761.863281 83.96875 C 762.527344 84.171875 763.195312 84.414062 763.84375 84.703125 C 764.753906 85.109375 765.683594 85.414062 766.65625 85.636719 C 767.585938 85.863281 768.496094 86.085938 769.449219 86.210938 C 770.113281 86.289062 770.761719 86.515625 771.410156 86.65625 C 772.683594 86.964844 773.957031 87.207031 775.253906 87.410156 C 775.980469 87.535156 776.710938 87.675781 777.457031 87.65625 C 778.347656 87.859375 779.277344 87.796875 780.1875 87.941406 C 780.390625 87.980469 780.613281 88.003906 780.816406 87.960938 C 781.785156 87.820312 782.777344 87.921875 783.769531 87.839844 C 784.335938 87.796875 784.882812 87.839844 785.449219 87.921875 C 785.972656 88.003906 786.5 88.003906 787.027344 88.003906 C 788.015625 88.003906 788.988281 88.003906 789.980469 88.164062 C 790.324219 88.226562 790.6875 88.226562 791.03125 88.246094 C 791.738281 88.289062 792.445312 88.308594 793.132812 88.390625 C 793.660156 88.449219 794.1875 88.449219 794.710938 88.429688 C 795.5 88.390625 796.269531 88.574219 796.996094 88.757812 C 798.050781 89.019531 799.101562 89.347656 800.113281 89.734375 C 800.375 89.835938 800.640625 89.9375 800.921875 89.917969 C 801.285156 89.898438 801.609375 90.019531 801.933594 90.164062 C 802.15625 90.265625 802.398438 90.324219 802.621094 90.449219 C 802.804688 90.53125 803.027344 90.609375 803.167969 90.773438 C 803.449219 91.121094 803.855469 91.261719 804.199219 91.488281 C 805.59375 92.363281 806.789062 93.445312 807.699219 94.828125 C 808.445312 95.992188 809.195312 97.152344 809.984375 98.292969 C 810.328125 98.804688 810.589844 99.332031 810.773438 99.902344 C 811.054688 100.738281 811.300781 101.59375 811.601562 102.429688 C 811.945312 103.367188 812.351562 104.265625 812.734375 105.179688 C 813 105.832031 813.28125 106.484375 813.566406 107.136719 C 813.847656 107.832031 814.191406 108.484375 814.675781 109.054688 C 815.0625 109.5 815.445312 109.96875 815.832031 110.4375 C 816.132812 110.828125 816.417969 111.234375 816.699219 111.640625 C 817.507812 112.761719 818.257812 113.925781 818.90625 115.148438 C 819.410156 116.085938 819.957031 117 820.523438 117.898438 C 821.25 119.039062 821.839844 120.242188 822.425781 121.464844 C 823.011719 122.6875 823.355469 123.992188 823.457031 125.355469 C 823.476562 125.601562 823.496094 125.84375 823.539062 126.089844 C 823.738281 127.414062 823.617188 128.71875 823.375 130.003906 C 823.292969 130.492188 823.152344 130.980469 823.050781 131.449219 C 822.890625 132.265625 822.566406 133 822.203125 133.730469 C 821.816406 134.507812 821.273438 135.160156 820.644531 135.730469 C 820.402344 135.933594 820.160156 136.136719 819.917969 136.339844 C 819.550781 136.625 819.25 136.972656 818.925781 137.296875 C 818.398438 137.867188 817.8125 138.398438 817.265625 138.949219 C 817.003906 139.316406 816.761719 139.296875 816.519531 139.089844 Z M 801.246094 136.910156 C 801.207031 136.871094 801.164062 136.851562 801.105469 136.808594 C 801.085938 136.808594 801.042969 136.851562 801.042969 136.871094 C 801.0625 136.929688 801.085938 136.972656 801.125 137.03125 C 801.164062 136.992188 801.207031 136.953125 801.246094 136.910156 Z M 802.925781 138.804688 C 802.945312 138.804688 802.964844 138.828125 803.003906 138.828125 C 803.003906 138.828125 803.027344 138.785156 803.027344 138.765625 C 803.003906 138.765625 802.984375 138.746094 802.964844 138.746094 C 802.925781 138.746094 802.925781 138.785156 802.925781 138.804688 Z M 803.25 138.359375 L 803.328125 138.398438 L 803.328125 138.335938 Z M 803.25 138.359375 " fill-opacity="1" fill-rule="nonzero"/></g><g clip-path="url(#e58bebb984)"><g clip-path="url(#06c2ca1fe2)"><g clip-path="url(#e9cb556630)"><path fill="#6e732c" d="M 222.058594 395.046875 C 225.550781 399.101562 227.832031 404.667969 228.484375 410.722656 C 228.796875 413.640625 228.726562 416.535156 228.265625 419.332031 C 227.792969 422.199219 226.933594 424.839844 225.710938 427.179688 C 224.855469 428.8125 223.828125 430.28125 222.65625 431.542969 C 221.429688 432.863281 220.035156 433.964844 218.515625 434.820312 C 215.207031 436.675781 211.316406 437.378906 206.945312 436.914062 C 205.320312 436.738281 203.761719 436.417969 202.320312 435.964844 C 200.960938 435.539062 199.660156 434.976562 198.417969 434.277344 C 196.210938 433.03125 194.21875 431.363281 192.332031 429.175781 C 189.679688 426.09375 187.570312 422.355469 185.53125 418.738281 C 183.46875 415.082031 181.335938 411.296875 178.621094 408.148438 C 177.929688 407.34375 177.195312 406.578125 176.414062 405.859375 C 174.898438 404.464844 173.011719 403.207031 171.015625 401.871094 C 168.320312 400.070312 165.53125 398.207031 163.539062 395.894531 C 162.429688 394.605469 161.667969 393.304688 161.21875 391.914062 C 160.71875 390.363281 160.613281 388.683594 160.910156 386.917969 C 161.167969 385.386719 161.71875 384.046875 162.546875 382.9375 C 163.324219 381.890625 164.367188 381.027344 165.640625 380.371094 C 168.054688 379.121094 171.378906 378.566406 175.511719 378.722656 C 178.960938 378.851562 182.980469 379.46875 187.457031 380.5625 C 190.988281 381.421875 194.839844 382.59375 198.59375 383.949219 C 201.433594 384.972656 204.207031 386.101562 206.015625 386.972656 C 206.914062 387.40625 208.105469 387.691406 209.484375 388.023438 C 211.84375 388.59375 214.78125 389.300781 217.574219 391.109375 C 219.214844 392.171875 220.722656 393.496094 222.058594 395.046875 Z M 222.058594 395.046875 " fill-opacity="1" fill-rule="nonzero"/></g></g></g><g clip-path="url(#e90e5b3b15)"><g clip-path="url(#0c5fd8fab1)"><g clip-path="url(#ebda0cb3cb)"><path fill="#6e732c" d="M 222.667969 394.523438 C 222.894531 394.785156 223.117188 395.054688 223.332031 395.328125 C 223.453125 395.480469 223.511719 395.65625 223.503906 395.851562 C 223.695312 395.898438 223.847656 396.003906 223.960938 396.160156 C 224.160156 396.441406 224.359375 396.730469 224.550781 397.019531 C 224.660156 397.179688 224.703125 397.359375 224.679688 397.550781 C 224.863281 397.617188 225.007812 397.730469 225.109375 397.898438 C 225.285156 398.191406 225.460938 398.496094 225.628906 398.796875 C 225.722656 398.96875 225.753906 399.148438 225.714844 399.339844 C 225.894531 399.414062 226.027344 399.539062 226.113281 399.714844 C 226.269531 400.019531 226.421875 400.335938 226.566406 400.648438 C 226.648438 400.824219 226.664062 401.007812 226.613281 401.195312 C 226.785156 401.285156 226.910156 401.417969 226.984375 401.597656 C 227.117188 401.914062 227.246094 402.238281 227.371094 402.558594 C 227.4375 402.742188 227.441406 402.921875 227.378906 403.105469 C 227.542969 403.207031 227.660156 403.347656 227.722656 403.53125 C 227.832031 403.855469 227.9375 404.1875 228.039062 404.515625 C 228.097656 404.703125 228.085938 404.882812 228.011719 405.0625 C 228.171875 405.175781 228.273438 405.324219 228.324219 405.511719 C 228.414062 405.839844 228.5 406.179688 228.578125 406.511719 C 228.625 406.699219 228.605469 406.882812 228.519531 407.054688 C 228.667969 407.175781 228.761719 407.332031 228.800781 407.523438 C 228.871094 407.855469 228.933594 408.199219 228.992188 408.535156 C 229.027344 408.726562 228.992188 408.90625 228.898438 409.074219 C 229.039062 409.203125 229.125 409.363281 229.152344 409.558594 C 229.199219 409.894531 229.242188 410.242188 229.28125 410.582031 C 229.300781 410.773438 229.257812 410.949219 229.152344 411.109375 C 229.285156 411.25 229.359375 411.417969 229.375 411.609375 C 229.402344 411.949219 229.425781 412.296875 229.441406 412.640625 C 229.453125 412.832031 229.398438 413.007812 229.28125 413.160156 C 229.410156 413.308594 229.472656 413.476562 229.476562 413.671875 C 229.480469 414.015625 229.484375 414.363281 229.476562 414.703125 C 229.476562 414.898438 229.410156 415.066406 229.285156 415.214844 C 229.402344 415.371094 229.457031 415.542969 229.449219 415.738281 C 229.433594 416.082031 229.410156 416.425781 229.386719 416.769531 C 229.371094 416.960938 229.296875 417.128906 229.160156 417.265625 C 229.265625 417.429688 229.308594 417.605469 229.289062 417.796875 C 229.25 418.140625 229.207031 418.484375 229.160156 418.824219 C 229.132812 419.015625 229.046875 419.175781 228.902344 419.304688 C 229 419.472656 229.03125 419.652344 228.996094 419.84375 C 228.933594 420.183594 228.867188 420.527344 228.796875 420.859375 C 228.757812 421.050781 228.660156 421.207031 228.507812 421.324219 C 228.59375 421.5 228.609375 421.683594 228.5625 421.871094 C 228.480469 422.207031 228.386719 422.542969 228.292969 422.871094 C 228.238281 423.058594 228.132812 423.207031 227.96875 423.3125 C 228.042969 423.496094 228.046875 423.675781 227.984375 423.863281 C 227.875 424.191406 227.757812 424.519531 227.636719 424.839844 C 227.570312 425.023438 227.449219 425.164062 227.28125 425.257812 C 227.335938 425.445312 227.328125 425.628906 227.25 425.808594 C 227.113281 426.125 226.972656 426.445312 226.824219 426.757812 C 226.742188 426.933594 226.609375 427.0625 226.433594 427.140625 C 226.472656 427.332031 226.449219 427.515625 226.355469 427.6875 C 226.191406 427.996094 226.019531 428.300781 225.84375 428.597656 C 225.746094 428.765625 225.601562 428.882812 225.417969 428.945312 C 225.441406 429.140625 225.398438 429.320312 225.289062 429.484375 C 225.097656 429.777344 224.894531 430.066406 224.691406 430.34375 C 224.578125 430.5 224.421875 430.601562 224.230469 430.648438 C 224.234375 430.84375 224.175781 431.019531 224.050781 431.171875 C 223.828125 431.441406 223.597656 431.710938 223.363281 431.964844 C 223.230469 432.113281 223.066406 432.195312 222.871094 432.222656 C 222.855469 432.417969 222.773438 432.585938 222.632812 432.722656 C 222.382812 432.96875 222.121094 433.207031 221.859375 433.4375 C 221.710938 433.566406 221.539062 433.632812 221.339844 433.636719 C 221.300781 433.828125 221.203125 433.984375 221.046875 434.105469 C 220.769531 434.320312 220.480469 434.53125 220.195312 434.726562 C 220.03125 434.835938 219.851562 434.882812 219.65625 434.859375 C 219.589844 435.046875 219.476562 435.191406 219.304688 435.292969 C 219.175781 435.371094 219.042969 435.449219 218.910156 435.523438 C 218.734375 435.621094 218.558594 435.714844 218.382812 435.808594 C 218.207031 435.898438 218.023438 435.921875 217.832031 435.875 C 217.746094 436.054688 217.613281 436.183594 217.433594 436.261719 C 217.113281 436.40625 216.785156 436.539062 216.457031 436.660156 C 216.273438 436.730469 216.085938 436.730469 215.902344 436.664062 C 215.796875 436.832031 215.648438 436.941406 215.460938 437 C 215.128906 437.101562 214.785156 437.195312 214.445312 437.28125 C 214.253906 437.328125 214.070312 437.308594 213.894531 437.21875 C 213.769531 437.375 213.613281 437.46875 213.417969 437.503906 C 213.078125 437.566406 212.730469 437.625 212.382812 437.671875 C 212.1875 437.699219 212.007812 437.65625 211.84375 437.550781 C 211.703125 437.691406 211.535156 437.769531 211.339844 437.785156 C 211 437.8125 210.648438 437.832031 210.296875 437.84375 C 210.101562 437.851562 209.925781 437.796875 209.773438 437.675781 C 209.621094 437.800781 209.449219 437.859375 209.253906 437.855469 C 208.910156 437.851562 208.558594 437.84375 208.210938 437.824219 C 208.015625 437.8125 207.847656 437.742188 207.707031 437.609375 C 207.546875 437.71875 207.367188 437.765625 207.175781 437.746094 C 207.070312 437.734375 206.964844 437.726562 206.863281 437.714844 C 206.621094 437.6875 206.378906 437.660156 206.140625 437.625 C 205.949219 437.601562 205.785156 437.515625 205.65625 437.371094 C 205.488281 437.46875 205.304688 437.503906 205.113281 437.46875 C 204.773438 437.40625 204.425781 437.339844 204.09375 437.265625 C 203.902344 437.226562 203.746094 437.128906 203.625 436.972656 C 203.449219 437.058594 203.265625 437.074219 203.078125 437.023438 C 202.742188 436.933594 202.40625 436.835938 202.078125 436.734375 L 202.074219 436.730469 C 201.886719 436.671875 201.742188 436.5625 201.636719 436.394531 C 201.453125 436.460938 201.265625 436.460938 201.082031 436.394531 C 200.757812 436.273438 200.429688 436.144531 200.109375 436.007812 C 199.929688 435.929688 199.792969 435.804688 199.707031 435.628906 C 199.515625 435.679688 199.332031 435.660156 199.15625 435.574219 C 198.839844 435.421875 198.527344 435.257812 198.222656 435.089844 C 198.050781 434.996094 197.929688 434.859375 197.859375 434.675781 C 197.664062 434.703125 197.484375 434.667969 197.316406 434.5625 C 197.023438 434.382812 196.726562 434.1875 196.4375 433.992188 C 196.277344 433.882812 196.171875 433.730469 196.117188 433.542969 C 195.921875 433.550781 195.746094 433.496094 195.589844 433.378906 C 195.316406 433.171875 195.039062 432.949219 194.773438 432.726562 C 194.621094 432.601562 194.53125 432.441406 194.496094 432.25 C 194.300781 432.242188 194.128906 432.171875 193.988281 432.039062 C 193.734375 431.808594 193.480469 431.566406 193.230469 431.320312 C 193.09375 431.183594 193.015625 431.019531 192.996094 430.824219 C 192.804688 430.800781 192.640625 430.71875 192.507812 430.574219 C 192.277344 430.328125 192.042969 430.066406 191.8125 429.804688 L 191.8125 429.800781 C 191.683594 429.65625 191.621094 429.488281 191.617188 429.292969 C 191.425781 429.257812 191.269531 429.164062 191.148438 429.011719 C 190.9375 428.75 190.722656 428.480469 190.507812 428.203125 C 190.390625 428.046875 190.335938 427.875 190.34375 427.683594 C 190.15625 427.632812 190.007812 427.53125 189.894531 427.375 C 189.699219 427.105469 189.5 426.824219 189.300781 426.535156 C 189.191406 426.378906 189.144531 426.203125 189.160156 426.011719 C 188.980469 425.957031 188.835938 425.847656 188.730469 425.6875 C 188.546875 425.410156 188.359375 425.121094 188.171875 424.828125 C 188.070312 424.667969 188.03125 424.492188 188.054688 424.300781 C 187.871094 424.238281 187.734375 424.125 187.632812 423.960938 C 187.460938 423.683594 187.285156 423.390625 187.105469 423.089844 C 187.007812 422.925781 186.972656 422.75 187 422.5625 C 186.820312 422.496094 186.683594 422.378906 186.589844 422.214844 C 186.425781 421.9375 186.261719 421.648438 186.082031 421.335938 C 185.984375 421.171875 185.953125 420.996094 185.984375 420.808594 C 185.804688 420.738281 185.671875 420.621094 185.578125 420.457031 C 185.410156 420.164062 185.246094 419.871094 185.082031 419.578125 C 184.988281 419.414062 184.957031 419.238281 184.988281 419.050781 C 184.8125 418.980469 184.679688 418.863281 184.585938 418.699219 C 184.421875 418.40625 184.253906 418.117188 184.089844 417.824219 C 183.996094 417.660156 183.964844 417.484375 183.992188 417.300781 C 183.820312 417.230469 183.683594 417.113281 183.59375 416.949219 C 183.414062 416.640625 183.25 416.359375 183.089844 416.082031 C 182.996094 415.921875 182.960938 415.746094 182.988281 415.5625 C 182.8125 415.496094 182.675781 415.382812 182.582031 415.222656 C 182.40625 414.925781 182.230469 414.636719 182.0625 414.367188 C 181.964844 414.207031 181.929688 414.035156 181.949219 413.847656 C 181.773438 413.789062 181.636719 413.675781 181.539062 413.519531 C 181.355469 413.234375 181.175781 412.953125 180.996094 412.683594 C 180.894531 412.527344 180.851562 412.359375 180.867188 412.171875 C 180.691406 412.117188 180.550781 412.011719 180.445312 411.859375 C 180.253906 411.582031 180.0625 411.308594 179.875 411.046875 C 179.765625 410.898438 179.714844 410.730469 179.722656 410.546875 C 179.542969 410.5 179.398438 410.402344 179.289062 410.253906 C 179.085938 409.988281 178.882812 409.726562 178.679688 409.476562 C 178.566406 409.332031 178.503906 409.167969 178.503906 408.984375 C 178.324219 408.949219 178.171875 408.859375 178.054688 408.722656 L 178.050781 408.71875 L 178.011719 408.675781 C 177.8125 408.441406 177.605469 408.210938 177.402344 407.988281 C 177.277344 407.851562 177.207031 407.691406 177.191406 407.511719 C 177.007812 407.484375 176.855469 407.410156 176.726562 407.277344 C 176.492188 407.042969 176.257812 406.8125 176.023438 406.597656 C 175.890625 406.472656 175.8125 406.320312 175.78125 406.140625 C 175.601562 406.132812 175.441406 406.070312 175.300781 405.949219 C 175.066406 405.75 174.8125 405.542969 174.542969 405.335938 C 174.398438 405.222656 174.304688 405.074219 174.257812 404.898438 C 174.074219 404.902344 173.910156 404.851562 173.757812 404.742188 C 173.507812 404.554688 173.246094 404.367188 172.953125 404.164062 C 172.800781 404.054688 172.699219 403.914062 172.644531 403.734375 C 172.460938 403.746094 172.289062 403.699219 172.136719 403.59375 C 171.890625 403.425781 171.625 403.25 171.304688 403.035156 C 171.148438 402.929688 171.042969 402.785156 170.984375 402.609375 C 170.796875 402.625 170.625 402.578125 170.46875 402.472656 C 170.199219 402.292969 169.914062 402.101562 169.628906 401.910156 C 169.46875 401.804688 169.363281 401.660156 169.308594 401.480469 C 169.117188 401.496094 168.945312 401.449219 168.789062 401.339844 C 168.488281 401.132812 168.210938 400.945312 167.949219 400.757812 C 167.792969 400.648438 167.691406 400.5 167.636719 400.316406 C 167.445312 400.324219 167.273438 400.273438 167.117188 400.160156 C 166.832031 399.949219 166.554688 399.742188 166.296875 399.539062 C 166.144531 399.421875 166.046875 399.265625 166.003906 399.078125 C 165.808594 399.078125 165.640625 399.015625 165.488281 398.890625 C 165.214844 398.664062 164.949219 398.4375 164.699219 398.214844 C 164.554688 398.082031 164.46875 397.921875 164.441406 397.726562 C 164.246094 397.710938 164.078125 397.632812 163.9375 397.496094 C 163.683594 397.242188 163.4375 396.988281 163.207031 396.734375 C 163.074219 396.589844 163.003906 396.414062 163 396.21875 C 162.804688 396.179688 162.644531 396.082031 162.519531 395.925781 C 162.292969 395.640625 162.082031 395.351562 161.886719 395.066406 C 161.773438 394.898438 161.730469 394.714844 161.753906 394.515625 C 161.5625 394.445312 161.417969 394.324219 161.320312 394.144531 C 161.144531 393.828125 160.980469 393.5 160.839844 393.175781 C 160.757812 392.988281 160.746094 392.796875 160.808594 392.605469 C 160.632812 392.5 160.515625 392.351562 160.453125 392.15625 C 160.339844 391.808594 160.246094 391.457031 160.171875 391.101562 C 160.128906 390.902344 160.15625 390.710938 160.257812 390.535156 C 160.109375 390.398438 160.023438 390.226562 160 390.023438 C 159.964844 389.667969 159.945312 389.304688 159.941406 388.941406 C 159.9375 388.738281 160.003906 388.558594 160.136719 388.40625 C 160.015625 388.246094 159.964844 388.0625 159.980469 387.859375 C 160.011719 387.511719 160.054688 387.152344 160.113281 386.796875 C 160.148438 386.59375 160.242188 386.429688 160.398438 386.304688 C 160.308594 386.121094 160.289062 385.933594 160.34375 385.738281 C 160.4375 385.382812 160.546875 385.039062 160.675781 384.699219 C 160.75 384.507812 160.878906 384.363281 161.058594 384.269531 C 161.007812 384.070312 161.03125 383.878906 161.125 383.695312 C 161.292969 383.367188 161.484375 383.050781 161.691406 382.75 C 161.808594 382.578125 161.964844 382.46875 162.167969 382.417969 C 162.164062 382.210938 162.234375 382.03125 162.371094 381.875 C 162.613281 381.601562 162.875 381.339844 163.148438 381.097656 C 163.304688 380.960938 163.484375 380.890625 163.6875 380.894531 C 163.734375 380.695312 163.839844 380.535156 164.007812 380.417969 C 164.308594 380.207031 164.613281 380.015625 164.929688 379.835938 C 165.105469 379.738281 165.292969 379.710938 165.492188 379.75 C 165.578125 379.566406 165.710938 379.433594 165.894531 379.351562 C 166.214844 379.210938 166.546875 379.078125 166.890625 378.957031 C 167.078125 378.890625 167.265625 378.894531 167.453125 378.964844 C 167.5625 378.800781 167.714844 378.691406 167.90625 378.640625 C 168.234375 378.546875 168.578125 378.464844 168.929688 378.390625 C 169.121094 378.347656 169.304688 378.375 169.476562 378.46875 C 169.605469 378.320312 169.765625 378.230469 169.960938 378.199219 C 170.296875 378.144531 170.644531 378.097656 170.996094 378.058594 C 171.1875 378.035156 171.367188 378.078125 171.53125 378.1875 C 171.667969 378.050781 171.835938 377.976562 172.03125 377.964844 C 172.367188 377.941406 172.714844 377.921875 173.066406 377.910156 C 173.257812 377.902344 173.433594 377.957031 173.585938 378.078125 C 173.734375 377.953125 173.90625 377.890625 174.097656 377.890625 C 174.433594 377.890625 174.78125 377.894531 175.128906 377.902344 C 175.320312 377.90625 175.492188 377.972656 175.636719 378.101562 C 175.792969 377.984375 175.964844 377.933594 176.15625 377.945312 C 176.492188 377.960938 176.835938 377.984375 177.183594 378.011719 C 177.375 378.023438 177.539062 378.097656 177.675781 378.230469 C 177.835938 378.125 178.011719 378.082031 178.203125 378.101562 C 178.535156 378.132812 178.878906 378.167969 179.21875 378.210938 C 179.410156 378.230469 179.574219 378.3125 179.707031 378.449219 C 179.867188 378.351562 180.046875 378.3125 180.234375 378.339844 C 180.566406 378.386719 180.90625 378.433594 181.246094 378.488281 C 181.433594 378.515625 181.59375 378.601562 181.722656 378.742188 C 181.886719 378.648438 182.0625 378.617188 182.253906 378.652344 C 182.582031 378.707031 182.921875 378.765625 183.257812 378.828125 C 183.441406 378.863281 183.597656 378.953125 183.722656 379.097656 L 183.722656 379.101562 C 183.890625 379.011719 184.070312 378.984375 184.257812 379.023438 C 184.585938 379.089844 184.921875 379.15625 185.253906 379.230469 C 185.441406 379.269531 185.59375 379.363281 185.714844 379.511719 C 185.882812 379.425781 186.0625 379.40625 186.25 379.449219 C 186.574219 379.523438 186.90625 379.601562 187.238281 379.679688 C 187.425781 379.722656 187.574219 379.820312 187.691406 379.972656 C 187.863281 379.890625 188.042969 379.875 188.226562 379.921875 C 188.550781 380.003906 188.882812 380.085938 189.210938 380.171875 C 189.394531 380.222656 189.542969 380.320312 189.65625 380.476562 C 189.832031 380.398438 190.007812 380.386719 190.191406 380.4375 C 190.515625 380.523438 190.84375 380.617188 191.171875 380.707031 C 191.351562 380.761719 191.5 380.863281 191.609375 381.019531 C 191.785156 380.945312 191.964844 380.9375 192.144531 380.988281 C 192.46875 381.085938 192.792969 381.183594 193.117188 381.28125 C 193.300781 381.335938 193.445312 381.441406 193.550781 381.597656 C 193.726562 381.527344 193.90625 381.523438 194.085938 381.578125 C 194.410156 381.679688 194.734375 381.785156 195.054688 381.886719 C 195.234375 381.945312 195.378906 382.054688 195.480469 382.214844 C 195.660156 382.144531 195.839844 382.144531 196.019531 382.203125 C 196.339844 382.308594 196.664062 382.417969 196.980469 382.527344 C 197.160156 382.589844 197.300781 382.699219 197.402344 382.859375 C 197.582031 382.796875 197.761719 382.796875 197.941406 382.859375 C 198.25 382.96875 198.558594 383.078125 198.867188 383.191406 L 198.894531 383.199219 C 199.074219 383.265625 199.214844 383.378906 199.3125 383.542969 C 199.492188 383.480469 199.671875 383.484375 199.851562 383.550781 C 200.167969 383.667969 200.488281 383.789062 200.800781 383.90625 C 200.980469 383.976562 201.117188 384.089844 201.210938 384.257812 C 201.390625 384.199219 201.570312 384.203125 201.75 384.273438 C 202.066406 384.398438 202.386719 384.527344 202.691406 384.648438 C 202.871094 384.722656 203.003906 384.839844 203.097656 385.007812 C 203.277344 384.953125 203.457031 384.960938 203.632812 385.035156 C 203.957031 385.171875 204.273438 385.304688 204.574219 385.433594 C 204.75 385.511719 204.878906 385.632812 204.96875 385.804688 C 205.152344 385.753906 205.332031 385.769531 205.507812 385.847656 C 205.8125 385.984375 206.101562 386.121094 206.363281 386.246094 C 206.382812 386.257812 206.40625 386.265625 206.429688 386.277344 C 206.582031 386.347656 206.699219 386.457031 206.785156 386.601562 C 206.949219 386.550781 207.113281 386.550781 207.28125 386.605469 C 207.542969 386.691406 207.847656 386.78125 208.203125 386.875 C 208.382812 386.921875 208.527344 387.019531 208.640625 387.167969 C 208.808594 387.089844 208.984375 387.074219 209.164062 387.117188 C 209.328125 387.160156 209.5 387.199219 209.671875 387.242188 C 209.824219 387.277344 209.984375 387.316406 210.144531 387.355469 C 210.328125 387.398438 210.480469 387.5 210.59375 387.648438 C 210.769531 387.570312 210.945312 387.554688 211.132812 387.601562 C 211.488281 387.695312 211.8125 387.78125 212.125 387.871094 C 212.3125 387.921875 212.460938 388.03125 212.570312 388.1875 C 212.75 388.117188 212.929688 388.109375 213.117188 388.171875 C 213.453125 388.277344 213.785156 388.390625 214.101562 388.507812 C 214.285156 388.574219 214.425781 388.695312 214.523438 388.863281 C 214.707031 388.804688 214.890625 388.816406 215.074219 388.890625 C 215.398438 389.027344 215.722656 389.171875 216.03125 389.324219 C 216.207031 389.410156 216.335938 389.542969 216.417969 389.722656 C 216.609375 389.683594 216.792969 389.710938 216.964844 389.808594 C 217.273438 389.980469 217.578125 390.160156 217.875 390.347656 C 218.039062 390.453125 218.152344 390.597656 218.210938 390.785156 C 218.40625 390.769531 218.585938 390.820312 218.746094 390.933594 C 219.027344 391.132812 219.308594 391.34375 219.585938 391.5625 C 219.738281 391.683594 219.835938 391.839844 219.875 392.03125 C 220.070312 392.035156 220.242188 392.101562 220.390625 392.230469 C 220.652344 392.457031 220.914062 392.695312 221.164062 392.9375 C 221.304688 393.070312 221.386719 393.238281 221.410156 393.429688 C 221.601562 393.453125 221.769531 393.535156 221.902344 393.675781 C 222.140625 393.925781 222.378906 394.1875 222.605469 394.449219 C 222.617188 394.460938 222.625 394.476562 222.636719 394.488281 C 222.648438 394.5 222.65625 394.511719 222.667969 394.523438 Z M 223.269531 397.988281 C 223.246094 397.960938 223.226562 397.933594 223.207031 397.90625 C 223.027344 397.632812 222.839844 397.363281 222.652344 397.101562 C 222.546875 396.953125 222.496094 396.789062 222.5 396.609375 C 222.324219 396.5625 222.179688 396.46875 222.066406 396.324219 C 221.867188 396.070312 221.65625 395.816406 221.449219 395.574219 C 221.4375 395.5625 221.429688 395.550781 221.421875 395.539062 C 221.410156 395.527344 221.398438 395.515625 221.390625 395.507812 C 221.179688 395.261719 220.957031 395.019531 220.738281 394.785156 C 220.609375 394.65625 220.539062 394.5 220.519531 394.320312 C 220.339844 394.296875 220.183594 394.226562 220.050781 394.097656 C 219.816406 393.875 219.578125 393.65625 219.335938 393.445312 C 219.199219 393.324219 219.109375 393.175781 219.074219 393 C 218.894531 392.996094 218.730469 392.9375 218.589844 392.828125 C 218.335938 392.628906 218.074219 392.433594 217.8125 392.246094 C 217.667969 392.140625 217.566406 392.003906 217.511719 391.832031 C 217.332031 391.84375 217.164062 391.804688 217.011719 391.707031 C 216.746094 391.539062 216.46875 391.375 216.1875 391.21875 C 216.027344 391.128906 215.914062 391.003906 215.839844 390.839844 C 215.664062 390.875 215.492188 390.851562 215.332031 390.773438 C 215.046875 390.636719 214.75 390.503906 214.449219 390.378906 C 214.28125 390.308594 214.152344 390.191406 214.0625 390.035156 C 213.890625 390.089844 213.71875 390.085938 213.546875 390.023438 C 213.25 389.914062 212.941406 389.808594 212.625 389.703125 C 212.449219 389.648438 212.3125 389.546875 212.207031 389.394531 C 212.035156 389.460938 211.863281 389.472656 211.6875 389.421875 C 211.386719 389.335938 211.074219 389.25 210.734375 389.164062 C 210.550781 389.117188 210.40625 389.019531 210.292969 388.871094 C 210.121094 388.949219 209.945312 388.964844 209.765625 388.921875 C 209.605469 388.882812 209.449219 388.84375 209.296875 388.808594 C 209.121094 388.765625 208.953125 388.726562 208.785156 388.683594 C 208.597656 388.640625 208.449219 388.542969 208.332031 388.386719 C 208.15625 388.46875 207.976562 388.484375 207.792969 388.433594 C 207.40625 388.332031 207.074219 388.234375 206.78125 388.136719 C 206.585938 388.074219 206.4375 387.953125 206.335938 387.777344 C 206.136719 387.839844 205.941406 387.828125 205.753906 387.738281 C 205.722656 387.726562 205.695312 387.714844 205.667969 387.699219 C 205.414062 387.578125 205.136719 387.449219 204.84375 387.316406 C 204.675781 387.238281 204.546875 387.117188 204.460938 386.953125 C 204.28125 387 204.105469 386.988281 203.933594 386.914062 C 203.640625 386.789062 203.332031 386.65625 203.015625 386.523438 C 202.84375 386.453125 202.710938 386.335938 202.621094 386.171875 C 202.441406 386.222656 202.265625 386.214844 202.09375 386.144531 C 201.789062 386.023438 201.476562 385.898438 201.164062 385.777344 C 200.988281 385.707031 200.855469 385.59375 200.757812 385.429688 C 200.582031 385.488281 200.40625 385.480469 200.230469 385.414062 C 199.917969 385.296875 199.605469 385.175781 199.292969 385.0625 C 199.117188 384.996094 198.980469 384.882812 198.882812 384.722656 C 198.707031 384.78125 198.527344 384.78125 198.351562 384.71875 L 198.320312 384.707031 C 198.019531 384.597656 197.710938 384.488281 197.410156 384.382812 C 197.230469 384.320312 197.09375 384.207031 196.992188 384.050781 C 196.816406 384.113281 196.640625 384.113281 196.460938 384.054688 C 196.148438 383.945312 195.828125 383.839844 195.515625 383.734375 C 195.335938 383.675781 195.195312 383.566406 195.09375 383.410156 C 194.917969 383.476562 194.742188 383.480469 194.5625 383.421875 C 194.246094 383.320312 193.925781 383.21875 193.609375 383.117188 C 193.429688 383.0625 193.289062 382.957031 193.183594 382.800781 C 193.007812 382.871094 192.832031 382.878906 192.652344 382.824219 C 192.335938 382.726562 192.011719 382.628906 191.695312 382.539062 C 191.515625 382.484375 191.371094 382.382812 191.261719 382.230469 C 191.089844 382.300781 190.914062 382.3125 190.734375 382.261719 C 190.410156 382.167969 190.085938 382.078125 189.769531 381.992188 C 189.589844 381.941406 189.445312 381.84375 189.332031 381.691406 C 189.164062 381.765625 188.988281 381.78125 188.804688 381.734375 C 188.480469 381.648438 188.15625 381.566406 187.835938 381.484375 C 187.65625 381.441406 187.507812 381.34375 187.394531 381.195312 C 187.226562 381.273438 187.050781 381.292969 186.867188 381.246094 C 186.542969 381.167969 186.214844 381.09375 185.894531 381.019531 C 185.710938 380.980469 185.5625 380.886719 185.445312 380.742188 C 185.277344 380.824219 185.101562 380.84375 184.921875 380.804688 C 184.59375 380.738281 184.265625 380.667969 183.945312 380.605469 C 183.761719 380.566406 183.609375 380.480469 183.492188 380.339844 L 183.488281 380.335938 C 183.324219 380.421875 183.148438 380.449219 182.964844 380.414062 C 182.636719 380.355469 182.308594 380.296875 181.984375 380.242188 C 181.800781 380.210938 181.648438 380.125 181.523438 379.984375 C 181.359375 380.078125 181.1875 380.109375 181.003906 380.082031 C 180.671875 380.03125 180.339844 379.980469 180.019531 379.9375 C 179.835938 379.914062 179.679688 379.832031 179.546875 379.699219 C 179.390625 379.796875 179.21875 379.832031 179.035156 379.8125 C 178.703125 379.773438 178.371094 379.734375 178.046875 379.703125 C 177.863281 379.6875 177.703125 379.613281 177.570312 379.484375 C 177.417969 379.589844 177.246094 379.632812 177.0625 379.617188 C 176.730469 379.59375 176.398438 379.570312 176.074219 379.554688 C 175.890625 379.542969 175.730469 379.480469 175.589844 379.359375 C 175.441406 379.46875 175.273438 379.519531 175.089844 379.515625 C 174.757812 379.507812 174.425781 379.503906 174.105469 379.503906 C 173.921875 379.503906 173.757812 379.449219 173.613281 379.335938 C 173.472656 379.453125 173.308594 379.515625 173.125 379.519531 C 172.792969 379.53125 172.464844 379.550781 172.148438 379.574219 C 171.964844 379.585938 171.800781 379.542969 171.648438 379.441406 C 171.515625 379.566406 171.359375 379.640625 171.179688 379.660156 C 170.851562 379.699219 170.527344 379.742188 170.21875 379.789062 C 170.039062 379.820312 169.871094 379.789062 169.710938 379.707031 C 169.59375 379.84375 169.445312 379.929688 169.269531 379.964844 C 168.949219 380.035156 168.636719 380.109375 168.335938 380.195312 C 168.164062 380.242188 167.996094 380.234375 167.832031 380.167969 C 167.730469 380.316406 167.597656 380.417969 167.429688 380.476562 C 167.128906 380.585938 166.832031 380.703125 166.554688 380.828125 C 166.394531 380.898438 166.230469 380.914062 166.058594 380.878906 C 165.984375 381.035156 165.875 381.160156 165.722656 381.242188 C 165.453125 381.394531 165.191406 381.558594 164.941406 381.734375 C 164.800781 381.835938 164.644531 381.882812 164.472656 381.882812 C 164.433594 382.050781 164.347656 382.191406 164.222656 382.304688 C 163.992188 382.503906 163.78125 382.71875 163.578125 382.945312 C 163.464844 383.074219 163.328125 383.15625 163.160156 383.195312 C 163.164062 383.367188 163.117188 383.519531 163.019531 383.660156 C 162.851562 383.910156 162.695312 384.171875 162.554688 384.441406 C 162.476562 384.59375 162.363281 384.707031 162.210938 384.785156 C 162.253906 384.953125 162.242188 385.117188 162.183594 385.277344 C 162.074219 385.5625 161.980469 385.855469 161.898438 386.152344 C 161.855469 386.324219 161.765625 386.460938 161.628906 386.570312 C 161.707031 386.726562 161.734375 386.890625 161.703125 387.066406 C 161.652344 387.378906 161.613281 387.691406 161.585938 387.996094 C 161.574219 388.171875 161.507812 388.324219 161.394531 388.457031 C 161.5 388.597656 161.550781 388.753906 161.550781 388.929688 C 161.554688 389.242188 161.570312 389.554688 161.605469 389.859375 C 161.621094 390.03125 161.589844 390.191406 161.503906 390.34375 C 161.632812 390.460938 161.710938 390.601562 161.746094 390.773438 C 161.8125 391.074219 161.890625 391.371094 161.984375 391.664062 C 162.039062 391.828125 162.039062 391.992188 161.984375 392.160156 C 162.136719 392.246094 162.246094 392.371094 162.3125 392.53125 C 162.4375 392.808594 162.574219 393.089844 162.730469 393.363281 C 162.816406 393.515625 162.847656 393.679688 162.824219 393.855469 C 162.992188 393.914062 163.121094 394.015625 163.222656 394.164062 C 163.394531 394.417969 163.582031 394.671875 163.78125 394.925781 C 163.894531 395.066406 163.953125 395.226562 163.957031 395.402344 C 164.132812 395.4375 164.28125 395.519531 164.402344 395.65625 C 164.609375 395.882812 164.832031 396.117188 165.066406 396.347656 C 165.199219 396.476562 165.273438 396.628906 165.300781 396.808594 C 165.480469 396.824219 165.640625 396.890625 165.777344 397.015625 C 166.007812 397.222656 166.257812 397.4375 166.515625 397.652344 C 166.65625 397.769531 166.75 397.917969 166.789062 398.097656 C 166.972656 398.097656 167.136719 398.152344 167.285156 398.265625 C 167.53125 398.460938 167.796875 398.660156 168.074219 398.863281 C 168.222656 398.972656 168.320312 399.117188 168.371094 399.296875 C 168.558594 399.285156 168.726562 399.335938 168.878906 399.441406 C 169.132812 399.625 169.402344 399.808594 169.695312 400.011719 C 169.851562 400.117188 169.957031 400.261719 170.011719 400.4375 C 170.199219 400.425781 170.371094 400.46875 170.527344 400.574219 C 170.808594 400.765625 171.09375 400.953125 171.363281 401.132812 C 171.519531 401.238281 171.625 401.382812 171.683594 401.5625 C 171.871094 401.546875 172.042969 401.589844 172.199219 401.695312 C 172.523438 401.914062 172.792969 402.09375 173.042969 402.265625 C 173.199219 402.371094 173.304688 402.515625 173.359375 402.699219 C 173.550781 402.683594 173.722656 402.734375 173.878906 402.84375 C 174.179688 403.054688 174.453125 403.25 174.710938 403.441406 C 174.867188 403.554688 174.96875 403.707031 175.015625 403.894531 C 175.210938 403.890625 175.382812 403.945312 175.535156 404.066406 C 175.820312 404.289062 176.089844 404.507812 176.34375 404.722656 C 176.492188 404.847656 176.585938 405.007812 176.617188 405.203125 C 176.8125 405.214844 176.980469 405.285156 177.125 405.417969 C 177.375 405.652344 177.625 405.894531 177.871094 406.144531 C 178.007812 406.285156 178.085938 406.449219 178.101562 406.644531 C 178.292969 406.667969 178.453125 406.753906 178.585938 406.898438 C 178.804688 407.132812 179.019531 407.378906 179.234375 407.625 L 179.273438 407.671875 C 179.402344 407.820312 179.464844 407.988281 179.46875 408.183594 C 179.660156 408.222656 179.8125 408.316406 179.933594 408.46875 C 180.144531 408.730469 180.359375 409.003906 180.570312 409.28125 C 180.6875 409.433594 180.742188 409.605469 180.734375 409.800781 C 180.921875 409.847656 181.070312 409.953125 181.183594 410.109375 C 181.378906 410.378906 181.574219 410.660156 181.773438 410.949219 C 181.882812 411.105469 181.929688 411.28125 181.910156 411.472656 C 182.09375 411.53125 182.238281 411.640625 182.34375 411.800781 C 182.527344 412.074219 182.710938 412.363281 182.898438 412.660156 C 183 412.820312 183.039062 412.996094 183.019531 413.183594 C 183.199219 413.25 183.339844 413.363281 183.4375 413.523438 C 183.609375 413.804688 183.785156 414.097656 183.964844 414.398438 C 184.0625 414.558594 184.097656 414.734375 184.070312 414.925781 C 184.25 414.992188 184.386719 415.109375 184.480469 415.273438 C 184.644531 415.550781 184.808594 415.839844 184.988281 416.148438 C 185.082031 416.316406 185.117188 416.492188 185.085938 416.675781 C 185.261719 416.746094 185.398438 416.863281 185.492188 417.03125 C 185.65625 417.324219 185.824219 417.617188 185.988281 417.910156 C 186.082031 418.074219 186.113281 418.25 186.082031 418.433594 C 186.257812 418.503906 186.390625 418.621094 186.484375 418.789062 C 186.648438 419.078125 186.8125 419.371094 186.980469 419.664062 C 187.074219 419.828125 187.105469 420 187.074219 420.1875 C 187.25 420.257812 187.382812 420.371094 187.476562 420.535156 C 187.65625 420.84375 187.820312 421.128906 187.980469 421.402344 C 188.074219 421.566406 188.109375 421.738281 188.082031 421.925781 C 188.257812 421.992188 188.394531 422.105469 188.488281 422.265625 C 188.664062 422.558594 188.839844 422.847656 189.007812 423.121094 C 189.105469 423.277344 189.140625 423.453125 189.121094 423.636719 C 189.296875 423.699219 189.433594 423.808594 189.535156 423.964844 C 189.714844 424.25 189.898438 424.53125 190.074219 424.800781 C 190.175781 424.957031 190.21875 425.125 190.203125 425.3125 C 190.382812 425.367188 190.523438 425.46875 190.628906 425.625 C 190.820312 425.898438 191.011719 426.171875 191.199219 426.429688 C 191.308594 426.582031 191.359375 426.75 191.351562 426.933594 C 191.53125 426.980469 191.675781 427.078125 191.789062 427.222656 C 191.992188 427.488281 192.195312 427.746094 192.398438 427.996094 C 192.515625 428.140625 192.574219 428.300781 192.578125 428.484375 C 192.757812 428.523438 192.910156 428.609375 193.027344 428.746094 C 193.246094 428.996094 193.464844 429.242188 193.683594 429.476562 C 193.808594 429.609375 193.882812 429.769531 193.898438 429.949219 C 194.082031 429.972656 194.234375 430.046875 194.367188 430.179688 C 194.597656 430.410156 194.835938 430.632812 195.070312 430.851562 C 195.207031 430.972656 195.289062 431.125 195.320312 431.304688 C 195.503906 431.3125 195.664062 431.375 195.804688 431.492188 C 196.054688 431.699219 196.308594 431.902344 196.5625 432.09375 C 196.707031 432.207031 196.804688 432.347656 196.851562 432.523438 C 197.035156 432.511719 197.199219 432.558594 197.347656 432.664062 C 197.613281 432.847656 197.886719 433.023438 198.160156 433.191406 C 198.316406 433.285156 198.425781 433.417969 198.492188 433.585938 C 198.667969 433.5625 198.839844 433.589844 198.996094 433.679688 C 199.277344 433.832031 199.566406 433.980469 199.855469 434.121094 C 200.019531 434.203125 200.144531 434.320312 200.226562 434.484375 C 200.398438 434.4375 200.570312 434.453125 200.738281 434.523438 C 201.035156 434.648438 201.335938 434.769531 201.636719 434.878906 C 201.808594 434.945312 201.941406 435.050781 202.039062 435.203125 C 202.210938 435.144531 202.382812 435.140625 202.558594 435.195312 C 202.863281 435.289062 203.175781 435.382812 203.488281 435.464844 C 203.664062 435.511719 203.808594 435.605469 203.917969 435.75 C 204.082031 435.671875 204.253906 435.652344 204.433594 435.691406 C 204.746094 435.761719 205.066406 435.824219 205.390625 435.878906 C 205.570312 435.910156 205.722656 435.996094 205.84375 436.128906 C 206.003906 436.039062 206.171875 436.003906 206.355469 436.027344 C 206.578125 436.058594 206.804688 436.085938 207.03125 436.109375 C 207.128906 436.121094 207.226562 436.132812 207.324219 436.140625 C 207.503906 436.15625 207.664062 436.226562 207.796875 436.351562 C 207.949219 436.25 208.113281 436.203125 208.296875 436.214844 C 208.621094 436.230469 208.949219 436.242188 209.269531 436.246094 C 209.449219 436.246094 209.613281 436.304688 209.753906 436.414062 C 209.894531 436.300781 210.054688 436.238281 210.238281 436.234375 C 210.5625 436.222656 210.886719 436.203125 211.203125 436.175781 C 211.386719 436.160156 211.550781 436.203125 211.703125 436.300781 C 211.832031 436.171875 211.984375 436.097656 212.164062 436.074219 C 212.484375 436.03125 212.804688 435.980469 213.117188 435.917969 C 213.292969 435.886719 213.464844 435.910156 213.625 435.988281 C 213.738281 435.851562 213.882812 435.757812 214.054688 435.714844 C 214.367188 435.640625 214.679688 435.550781 214.980469 435.460938 C 215.152344 435.40625 215.324219 435.410156 215.492188 435.472656 C 215.589844 435.320312 215.722656 435.214844 215.890625 435.152344 C 216.1875 435.039062 216.488281 434.917969 216.777344 434.789062 C 216.941406 434.714844 217.109375 434.699219 217.285156 434.742188 C 217.363281 434.578125 217.480469 434.457031 217.640625 434.375 C 217.800781 434.292969 217.960938 434.203125 218.117188 434.117188 C 218.238281 434.050781 218.359375 433.980469 218.476562 433.910156 C 218.628906 433.816406 218.796875 433.78125 218.976562 433.800781 C 219.03125 433.628906 219.136719 433.496094 219.285156 433.394531 C 219.546875 433.214844 219.804688 433.023438 220.058594 432.828125 C 220.199219 432.71875 220.363281 432.664062 220.542969 432.660156 C 220.578125 432.484375 220.664062 432.339844 220.800781 432.21875 C 221.039062 432.011719 221.277344 431.792969 221.503906 431.570312 C 221.632812 431.441406 221.785156 431.367188 221.964844 431.347656 C 221.980469 431.167969 222.050781 431.011719 222.171875 430.878906 C 222.386719 430.644531 222.597656 430.398438 222.800781 430.148438 C 222.914062 430.007812 223.0625 429.917969 223.238281 429.875 C 223.234375 429.695312 223.285156 429.53125 223.390625 429.386719 C 223.582031 429.128906 223.765625 428.863281 223.945312 428.59375 C 224.042969 428.441406 224.179688 428.335938 224.351562 428.277344 C 224.328125 428.097656 224.363281 427.929688 224.457031 427.773438 C 224.621094 427.496094 224.78125 427.214844 224.933594 426.929688 C 225.015625 426.765625 225.140625 426.648438 225.308594 426.574219 C 225.269531 426.394531 225.289062 426.222656 225.367188 426.058594 C 225.507812 425.769531 225.640625 425.472656 225.765625 425.171875 C 225.839844 425.003906 225.953125 424.875 226.113281 424.789062 C 226.058594 424.613281 226.066406 424.441406 226.128906 424.269531 C 226.242188 423.96875 226.351562 423.660156 226.457031 423.351562 C 226.511719 423.175781 226.617188 423.039062 226.769531 422.9375 C 226.703125 422.765625 226.695312 422.59375 226.746094 422.417969 C 226.835938 422.109375 226.921875 421.792969 227 421.472656 C 227.042969 421.296875 227.136719 421.152344 227.28125 421.039062 C 227.203125 420.871094 227.183594 420.699219 227.222656 420.519531 C 227.289062 420.203125 227.351562 419.882812 227.40625 419.558594 C 227.441406 419.378906 227.523438 419.226562 227.660156 419.105469 C 227.570312 418.945312 227.535156 418.773438 227.5625 418.589844 C 227.609375 418.269531 227.652344 417.941406 227.6875 417.617188 C 227.707031 417.433594 227.78125 417.277344 227.90625 417.144531 C 227.808594 416.992188 227.761719 416.824219 227.777344 416.640625 C 227.800781 416.316406 227.824219 415.988281 227.835938 415.660156 C 227.84375 415.476562 227.910156 415.316406 228.027344 415.175781 C 227.917969 415.027344 227.863281 414.863281 227.867188 414.679688 C 227.871094 414.351562 227.871094 414.023438 227.863281 413.695312 C 227.859375 413.511719 227.914062 413.347656 228.023438 413.199219 C 227.90625 413.058594 227.839844 412.898438 227.832031 412.714844 C 227.816406 412.386719 227.796875 412.058594 227.769531 411.730469 C 227.753906 411.546875 227.796875 411.378906 227.898438 411.226562 C 227.769531 411.09375 227.695312 410.9375 227.675781 410.753906 C 227.640625 410.429688 227.601562 410.101562 227.554688 409.777344 C 227.53125 409.59375 227.5625 409.425781 227.652344 409.265625 C 227.519531 409.140625 227.433594 408.988281 227.402344 408.804688 C 227.347656 408.484375 227.289062 408.160156 227.222656 407.839844 C 227.183594 407.660156 227.207031 407.488281 227.289062 407.324219 C 227.144531 407.207031 227.054688 407.058594 227.011719 406.878906 C 226.9375 406.5625 226.855469 406.242188 226.769531 405.929688 C 226.722656 405.75 226.734375 405.578125 226.804688 405.410156 C 226.652344 405.300781 226.550781 405.160156 226.496094 404.984375 C 226.402344 404.671875 226.300781 404.359375 226.195312 404.050781 C 226.136719 403.878906 226.136719 403.703125 226.195312 403.53125 C 226.039062 403.433594 225.929688 403.300781 225.863281 403.128906 C 225.746094 402.824219 225.625 402.515625 225.5 402.21875 C 225.429688 402.050781 225.414062 401.875 225.464844 401.699219 C 225.300781 401.613281 225.179688 401.488281 225.105469 401.320312 C 224.96875 401.027344 224.824219 400.730469 224.679688 400.441406 C 224.59375 400.277344 224.570312 400.105469 224.605469 399.925781 C 224.4375 399.851562 224.308594 399.738281 224.21875 399.578125 C 224.0625 399.292969 223.898438 399.007812 223.730469 398.730469 C 223.632812 398.574219 223.597656 398.40625 223.617188 398.222656 C 223.480469 398.175781 223.363281 398.097656 223.269531 397.988281 Z M 223.269531 397.988281 " fill-opacity="1" fill-rule="nonzero"/></g></g></g></svg>