<svg xmlns="http://www.w3.org/2000/svg" xmlns:xlink="http://www.w3.org/1999/xlink" width="1366" zoomAndPan="magnify" viewBox="0 0 1024.5 576" height="768" preserveAspectRatio="xMidYMid meet" version="1.0"><defs><clipPath id="a188a995d9"><path d="M 0 0.140625 L 1024 0.140625 L 1024 575.859375 L 0 575.859375 Z M 0 0.140625 " clip-rule="nonzero"/></clipPath><clipPath id="eebc23698d"><path d="M 0 262.101562 L 237 262.101562 L 237 575.859375 L 0 575.859375 Z M 0 262.101562 " clip-rule="nonzero"/></clipPath><clipPath id="2441323457"><path d="M 783 0.140625 L 1024 0.140625 L 1024 320.238281 L 783 320.238281 Z M 783 0.140625 " clip-rule="nonzero"/></clipPath><clipPath id="5124817e90"><path d="M 753 399 L 882 399 L 882 551 L 753 551 Z M 753 399 " clip-rule="nonzero"/></clipPath><clipPath id="58856dc285"><path d="M 762.398438 384.964844 L 903.722656 412.605469 L 874.355469 562.761719 L 733.03125 535.121094 Z M 762.398438 384.964844 " clip-rule="nonzero"/></clipPath><clipPath id="83356ded86"><path d="M 762.398438 384.964844 L 903.722656 412.605469 L 874.355469 562.761719 L 733.03125 535.121094 Z M 762.398438 384.964844 " clip-rule="nonzero"/></clipPath><clipPath id="654bdc6775"><path d="M 58 103 L 147.859375 103 L 147.859375 193 L 58 193 Z M 58 103 " clip-rule="nonzero"/></clipPath></defs><g clip-path="url(#a188a995d9)"><path fill="#ffffff" d="M 0 0.140625 L 1024.5 0.140625 L 1024.5 576.140625 L 0 576.140625 Z M 0 0.140625 " fill-opacity="1" fill-rule="nonzero"/><path fill="#ffffff" d="M 0 0.140625 L 1024.5 0.140625 L 1024.5 576.140625 L 0 576.140625 Z M 0 0.140625 " fill-opacity="1" fill-rule="nonzero"/></g><g clip-path="url(#eebc23698d)"><path fill="#6e732c" d="M 12.902344 262.128906 C 8.582031 262.113281 4.257812 262.492188 0 263.226562 L 0 576.335938 L 237 576.335938 C 233.433594 575.070312 229.894531 573.71875 226.457031 572.128906 C 217.914062 568.179688 209.808594 562.53125 205.015625 554.429688 C 201.535156 548.542969 199.996094 541.667969 199.585938 534.839844 C 199.175781 528.011719 199.847656 521.167969 200.507812 514.359375 C 201.167969 507.550781 201.820312 500.707031 201.378906 493.878906 C 200.941406 487.050781 199.351562 480.1875 195.8125 474.328125 C 191.875 467.8125 185.699219 462.859375 178.925781 459.382812 C 172.148438 455.90625 164.753906 453.808594 157.34375 452.046875 C 149.933594 450.28125 142.4375 448.832031 135.171875 446.542969 C 127.90625 444.253906 120.816406 441.078125 114.9375 436.234375 C 108.339844 430.796875 103.503906 423.417969 100.332031 415.476562 C 97.160156 407.539062 95.589844 399.035156 94.828125 390.523438 C 93.300781 373.496094 94.933594 356.238281 92.527344 339.3125 C 90.015625 321.660156 82.980469 304.527344 71.542969 290.835938 C 60.105469 277.148438 44.1875 267.050781 26.695312 263.527344 C 22.15625 262.609375 17.53125 262.152344 12.902344 262.128906 Z M 12.902344 262.128906 " fill-opacity="1" fill-rule="nonzero"/></g><g clip-path="url(#2441323457)"><path fill="#6e732c" d="M 1011.351562 320.210938 C 1015.753906 320.226562 1020.160156 319.839844 1024.5 319.089844 L 1024.5 0 L 782.996094 0 C 786.636719 1.292969 790.238281 2.667969 793.746094 4.289062 C 802.449219 8.3125 810.707031 14.070312 815.589844 22.324219 C 819.136719 28.324219 820.707031 35.332031 821.125 42.289062 C 821.539062 49.25 820.859375 56.222656 820.183594 63.160156 C 819.511719 70.101562 818.847656 77.078125 819.296875 84.035156 C 819.742188 90.988281 821.363281 97.988281 824.96875 103.957031 C 828.980469 110.597656 835.273438 115.644531 842.179688 119.1875 C 849.082031 122.730469 856.617188 124.871094 864.167969 126.667969 C 871.71875 128.460938 879.359375 129.941406 886.761719 132.273438 C 894.164062 134.605469 901.390625 137.84375 907.378906 142.777344 C 914.101562 148.320312 919.03125 155.84375 922.261719 163.933594 C 925.492188 172.023438 927.09375 180.6875 927.871094 189.363281 C 929.425781 206.71875 927.765625 224.300781 930.214844 241.550781 C 932.773438 259.542969 939.941406 277.003906 951.597656 290.953125 C 963.25 304.90625 979.472656 315.195312 997.296875 318.789062 C 1001.921875 319.71875 1006.636719 320.1875 1011.351562 320.210938 Z M 1011.351562 320.210938 " fill-opacity="1" fill-rule="nonzero"/></g><g clip-path="url(#5124817e90)"><g clip-path="url(#58856dc285)"><g clip-path="url(#83356ded86)"><path fill="#6e732c" d="M 881.222656 523.269531 C 882.902344 510.746094 875.140625 501.375 864.550781 495.296875 C 854.402344 489.433594 845.773438 484.832031 841.023438 473.515625 C 837.125 464.230469 836.425781 454.027344 834.304688 444.351562 C 831.152344 429.953125 824.820312 415.410156 812.136719 406.425781 C 789.246094 390.21875 759.507812 402.316406 754.089844 428.695312 C 751.207031 442.777344 755.972656 457.300781 763.773438 469.273438 C 769.375 477.871094 774.964844 484.730469 775.441406 495.273438 C 775.777344 502.742188 774.539062 510.386719 776.46875 517.75 C 780.382812 532.683594 798.519531 542.160156 812.257812 547.570312 C 827.726562 553.640625 842.460938 549.183594 857.394531 544.699219 C 857.425781 544.707031 857.425781 544.707031 857.425781 544.707031 C 869.394531 543.234375 879.609375 535.296875 881.222656 523.269531 Z M 881.222656 523.269531 " fill-opacity="1" fill-rule="nonzero"/></g></g></g><g clip-path="url(#654bdc6775)"><path fill="#6e732c" d="M 58.378906 126.738281 C 58.851562 134.652344 64.738281 139.488281 71.960938 141.953125 C 78.890625 144.34375 84.738281 146.136719 89.007812 152.53125 C 92.511719 157.78125 94.167969 163.980469 96.628906 169.683594 C 100.289062 178.171875 105.917969 186.363281 114.777344 190.367188 C 130.761719 197.59375 147.554688 186.558594 147.710938 169.664062 C 147.789062 160.644531 143.125 152.277344 136.902344 145.84375 C 132.433594 141.222656 128.183594 137.671875 126.628906 131.238281 C 125.523438 126.675781 125.367188 121.820312 123.300781 117.519531 C 119.109375 108.796875 106.84375 105.144531 97.769531 103.46875 C 87.550781 101.59375 79.046875 106.113281 70.425781 110.671875 C 70.40625 110.671875 70.40625 110.671875 70.40625 110.671875 C 63.242188 113.019531 57.925781 119.136719 58.378906 126.738281 Z M 58.378906 126.738281 " fill-opacity="1" fill-rule="nonzero"/></g></svg>